<svg xmlns="http://www.w3.org/2000/svg" width="533" height="459" viewBox="0 0 533 459" version="1.1"><path d="M 330.530 86.507 C 326.697 88.978, 323.194 91, 322.747 91 C 322.299 91, 318.575 93.138, 314.470 95.750 C 310.366 98.362, 302.010 103.425, 295.901 107 C 289.793 110.575, 282.478 114.855, 279.647 116.510 C 269.377 122.516, 268.013 123.528, 268.006 125.136 C 268.003 126.044, 269.651 127.556, 271.709 128.532 C 273.749 129.500, 277.840 131.842, 280.800 133.735 C 283.761 135.629, 287.604 137.834, 289.341 138.635 C 291.079 139.436, 296.100 142.316, 300.500 145.034 C 304.900 147.753, 310.075 150.709, 312 151.604 C 313.925 152.499, 317.750 154.719, 320.500 156.538 C 323.250 158.358, 327.975 161.066, 331 162.558 C 340.502 167.242, 340 165.930, 340 186.096 C 340 197.128, 340.388 204.122, 341.022 204.514 C 341.708 204.937, 341.954 198.824, 341.772 185.926 L 341.500 166.708 320.500 154.688 C 308.950 148.078, 296.575 141.007, 293 138.976 C 276.322 129.498, 269.946 125.721, 269.552 125.084 C 269.317 124.704, 271.459 123.023, 274.312 121.349 C 277.166 119.675, 285.125 115.029, 292 111.024 C 298.875 107.020, 306.075 102.739, 308 101.512 C 318.884 94.573, 339.306 83, 340.668 83 C 341.542 83, 344.786 84.455, 347.878 86.233 C 350.970 88.012, 354.744 90.149, 356.265 90.983 C 357.786 91.818, 370.099 98.800, 383.628 106.500 C 397.156 114.200, 409.456 121.171, 410.961 121.991 L 413.698 123.481 414.346 143.491 C 415.174 169.021, 415.175 189.232, 414.349 200.858 C 413.718 209.761, 413.610 210.076, 410.599 211.876 C 393.317 222.211, 345.785 249.902, 344.586 250.335 C 343.989 250.550, 343.843 251.093, 344.262 251.542 C 344.682 251.991, 346.363 251.369, 347.998 250.160 C 349.633 248.951, 352.119 247.525, 353.522 246.992 C 354.925 246.458, 359.094 244.068, 362.787 241.681 C 366.479 239.293, 370.340 237.032, 371.368 236.656 C 372.395 236.280, 375.770 234.381, 378.868 232.436 C 387.837 226.805, 408.151 214.871, 412.250 212.825 L 416 210.953 415.993 167.227 L 415.986 123.500 412.743 121.309 C 410.959 120.104, 406.800 117.710, 403.500 115.988 C 397.136 112.668, 386.707 106.796, 376 100.503 C 372.425 98.402, 366.088 94.812, 361.917 92.525 C 357.746 90.238, 352.211 86.934, 349.617 85.183 C 342.885 80.640, 339.238 80.893, 330.530 86.507 M 186.940 84.473 C 185.532 85.238, 181.942 87.470, 178.963 89.433 C 175.983 91.395, 173.180 93, 172.732 93 C 172.285 93, 170.700 93.848, 169.210 94.884 C 167.719 95.920, 162 99.352, 156.500 102.511 C 151 105.670, 144.250 109.624, 141.500 111.298 C 138.750 112.971, 134.250 115.525, 131.500 116.972 C 128.750 118.419, 124.818 120.704, 122.762 122.051 L 119.025 124.500 119.012 168.136 L 119 211.772 122.250 213.319 C 124.037 214.170, 129.550 217.376, 134.500 220.443 C 139.450 223.510, 144.625 226.547, 146 227.191 C 148.396 228.314, 155.354 232.315, 173.250 242.862 C 188.103 251.614, 191.648 253.349, 193.346 252.698 C 194.848 252.121, 195 248.216, 195 210.074 L 195 168.084 199.750 165.417 C 202.363 163.949, 206.750 161.373, 209.500 159.692 C 212.250 158.011, 216.750 155.418, 219.500 153.930 C 222.250 152.443, 228.550 148.721, 233.500 145.659 C 238.450 142.597, 244.300 139.184, 246.500 138.073 C 248.700 136.963, 252.898 134.507, 255.828 132.616 C 258.759 130.725, 262.471 128.633, 264.078 127.968 C 265.685 127.302, 267 126.181, 267 125.476 C 267 124.061, 257.821 117.643, 253.384 115.956 C 251.834 115.367, 249.935 114.348, 249.164 113.692 C 248.393 113.036, 244.934 110.925, 241.477 109 C 238.020 107.075, 231.436 103.300, 226.846 100.611 C 222.256 97.922, 216.147 94.435, 213.272 92.863 C 210.397 91.290, 205.535 88.398, 202.468 86.436 C 199.401 84.475, 196.368 83.044, 195.727 83.258 C 195.087 83.471, 198.031 85.638, 202.271 88.073 C 261.171 121.901, 265.120 124.309, 263.816 125.598 C 263.092 126.314, 256.425 130.461, 249 134.814 C 206.214 159.898, 195.375 166.315, 194.250 167.229 C 193.287 168.012, 193 177.729, 193 209.622 C 193 239.607, 192.690 251, 191.875 251 C 190.824 251, 147.132 226.276, 133.232 217.815 C 129.785 215.717, 126.705 214, 126.387 214 C 126.069 214, 124.502 213.069, 122.904 211.932 L 120 209.864 120.007 173.682 C 120.015 135.651, 120.558 124.286, 122.390 123.796 C 123.001 123.633, 131.946 118.550, 142.268 112.500 C 162.442 100.676, 168.511 97.160, 176.811 92.489 C 186.077 87.274, 192.483 82.999, 190.966 83.040 C 190.160 83.062, 188.348 83.707, 186.940 84.473 M 342.413 234.500 C 342.414 244.400, 342.564 248.315, 342.746 243.199 C 342.928 238.084, 342.927 229.984, 342.744 225.199 C 342.561 220.415, 342.412 224.600, 342.413 234.500 M 194 254 C 194 254.550, 194.563 255.016, 195.250 255.035 C 195.938 255.054, 201.450 257.939, 207.500 261.446 C 213.550 264.954, 223.450 270.630, 229.500 274.059 C 235.550 277.488, 246.701 283.831, 254.281 288.154 L 268.062 296.015 285.281 285.885 C 294.751 280.314, 304.075 274.865, 306 273.776 C 307.925 272.687, 311.975 270.313, 315 268.501 C 318.025 266.689, 322.331 264.147, 324.568 262.853 C 326.806 261.559, 330.968 259.150, 333.817 257.500 C 336.667 255.850, 338.998 254.169, 338.999 253.764 C 339 252.992, 327.306 259.018, 323 262.008 C 321.625 262.963, 318.025 265.088, 315 266.730 C 311.975 268.372, 305.450 272.240, 300.500 275.325 C 295.550 278.410, 290.003 281.615, 288.173 282.448 C 286.343 283.281, 282.819 285.331, 280.341 287.003 C 277.863 288.675, 274.073 290.942, 271.918 292.042 L 268 294.041 263.750 291.891 C 261.413 290.709, 256.245 287.774, 252.267 285.371 C 248.289 282.967, 244.837 281, 244.596 281 C 244.355 281, 238.956 277.962, 232.598 274.250 C 209.882 260.986, 205.452 258.478, 201.873 256.854 C 199.879 255.949, 197.940 254.711, 197.564 254.104 C 196.713 252.727, 194 252.647, 194 254 M 341 295.401 L 341 337.802 337.250 340.028 C 328.940 344.959, 312.002 354.787, 286.500 369.474 C 267.440 380.451, 268.142 380, 270.115 380 C 270.911 380, 275.149 377.916, 279.532 375.369 C 295.576 366.044, 303.562 361.445, 306.235 359.989 C 307.739 359.170, 313.248 355.913, 318.476 352.750 C 323.704 349.587, 328.222 347, 328.515 347 C 328.809 347, 331.963 345.160, 335.525 342.910 L 342 338.821 342 295.910 C 342 272.310, 341.775 253, 341.500 253 C 341.225 253, 341 272.081, 341 295.401 M 194.239 298.039 L 194 339.577 199.250 342.683 C 202.137 344.391, 205.692 346.399, 207.150 347.144 C 208.607 347.890, 213.731 350.750, 218.536 353.500 C 223.341 356.250, 229.968 359.973, 233.264 361.773 C 236.559 363.573, 240.436 365.874, 241.878 366.887 C 243.320 367.899, 246.525 369.688, 249 370.862 C 251.475 372.037, 256.107 374.604, 259.292 376.568 C 262.478 378.532, 265.615 379.962, 266.264 379.745 C 266.913 379.529, 261.156 375.817, 253.472 371.496 C 245.787 367.175, 235.872 361.583, 231.439 359.070 C 227.005 356.556, 217.011 350.900, 209.230 346.500 L 195.082 338.500 194.780 297.500 L 194.477 256.500 194.239 298.039" stroke="none" fill="#9b9bad" fill-rule="evenodd"/><path d="M 187.278 86.250 C 184.442 88.037, 179.733 90.845, 176.811 92.489 C 168.511 97.160, 162.442 100.676, 142.268 112.500 C 131.946 118.550, 123.001 123.633, 122.390 123.796 C 120.558 124.286, 120.015 135.651, 120.007 173.682 L 120 209.864 122.904 211.932 C 124.502 213.069, 126.069 214, 126.387 214 C 126.705 214, 129.785 215.717, 133.232 217.815 C 147.132 226.276, 190.824 251, 191.875 251 C 192.690 251, 193 239.607, 193 209.622 C 193 177.729, 193.287 168.012, 194.250 167.229 C 195.375 166.315, 206.214 159.898, 249 134.814 C 256.425 130.461, 263.092 126.314, 263.816 125.598 C 264.898 124.528, 260.300 121.515, 237.816 108.564 C 222.792 99.911, 206.721 90.619, 202.103 87.915 C 197.485 85.212, 193.419 83, 193.069 83 C 192.719 83, 190.113 84.463, 187.278 86.250 M 324.500 91.537 C 316.800 96.145, 309.150 100.776, 307.500 101.828 C 305.850 102.879, 298.875 107.017, 292 111.022 C 285.125 115.028, 277.166 119.675, 274.312 121.349 C 271.459 123.023, 269.317 124.704, 269.552 125.084 C 269.946 125.721, 276.322 129.498, 293 138.976 C 296.575 141.007, 308.950 148.077, 320.500 154.687 L 341.500 166.705 342.113 195.103 C 342.450 210.721, 342.787 229.930, 342.863 237.789 C 342.972 249.121, 343.259 251.855, 344.250 250.998 C 344.938 250.404, 352.925 245.611, 362 240.346 C 377.333 231.451, 403.436 216.160, 410.599 211.876 C 413.610 210.076, 413.718 209.761, 414.349 200.858 C 415.175 189.232, 415.174 169.021, 414.346 143.491 L 413.698 123.481 410.961 121.991 C 409.456 121.171, 397.156 114.200, 383.628 106.500 C 370.099 98.800, 357.786 91.818, 356.265 90.983 C 354.744 90.149, 350.970 88.012, 347.878 86.233 C 344.786 84.455, 341.411 83.035, 340.378 83.079 C 339.345 83.122, 332.200 86.928, 324.500 91.537 M 338.833 253.764 C 338.507 254.512, 325.298 263, 324.460 263 C 324.226 263, 321.215 264.724, 317.768 266.832 C 314.320 268.940, 309.475 271.810, 307 273.209 C 304.525 274.609, 294.751 280.313, 285.281 285.884 L 268.062 296.015 254.281 288.154 C 246.701 283.831, 235.550 277.488, 229.500 274.059 C 223.450 270.630, 213.550 264.954, 207.500 261.446 C 196.134 254.857, 193.332 253.817, 194.393 256.582 C 194.727 257.452, 195.015 276.239, 195.033 298.332 L 195.066 338.500 211.283 347.664 C 220.202 352.705, 232.900 359.866, 239.500 363.578 C 246.100 367.290, 255.272 372.514, 259.882 375.186 L 268.263 380.044 283.382 371.387 C 291.697 366.626, 300.525 361.514, 303 360.028 C 305.475 358.541, 310.650 355.504, 314.500 353.279 C 318.350 351.053, 325.887 346.649, 331.250 343.493 L 341 337.754 341 295.377 C 341 258.101, 340.567 249.788, 338.833 253.764" stroke="none" fill="#35355c" fill-rule="evenodd"/></svg>